<svg xmlns="http://www.w3.org/2000/svg" xmlns:xlink="http://www.w3.org/1999/xlink" width="512" zoomAndPan="magnify" viewBox="0 0 384 383.999986" height="512" preserveAspectRatio="xMidYMid meet" version="1.0"><defs><g/><clipPath id="id1"><path d="M 7.5 7.5 L 231 7.5 L 231 231 L 7.5 231 Z M 7.5 7.5 " clip-rule="nonzero"/></clipPath><clipPath id="id2"><path d="M 153.332031 153.332031 L 376.832031 153.332031 L 376.832031 376.832031 L 153.332031 376.832031 Z M 153.332031 153.332031 " clip-rule="nonzero"/></clipPath><clipPath id="id3"><path d="M 36 38 L 149 38 L 149 151 L 36 151 Z M 36 38 " clip-rule="nonzero"/></clipPath><clipPath id="id4"><path d="M 201.652344 95 L 92.9375 203.71875 L -15.78125 95 L 92.9375 -13.71875 Z M 201.652344 95 " clip-rule="nonzero"/></clipPath><clipPath id="id5"><path d="M 201.652344 95 L 92.9375 203.71875 L -15.78125 95 L 92.9375 -13.71875 Z M 201.652344 95 " clip-rule="nonzero"/></clipPath></defs><g clip-path="url(#id1)"><path fill="#eceaec" d="M 205.390625 7.5 L 33.109375 7.5 C 18.984375 7.5 7.5 18.984375 7.5 33.109375 L 7.5 205.390625 C 7.5 219.519531 18.984375 231 33.109375 231 L 205.390625 231 C 219.515625 231 231 219.519531 231 205.390625 L 231 33.109375 C 231 18.984375 219.515625 7.5 205.390625 7.5 Z M 205.390625 7.5 " fill-opacity="1" fill-rule="nonzero"/><path fill="#000000" d="M 205.390625 231 L 33.109375 231 C 18.984375 231 7.5 219.519531 7.5 205.390625 L 7.5 33.109375 C 7.5 18.984375 18.984375 7.5 33.109375 7.5 L 205.390625 7.5 C 219.515625 7.5 231 18.984375 231 33.109375 L 231 205.390625 C 231 219.519531 219.515625 231 205.390625 231 Z M 33.109375 21.46875 C 26.695312 21.46875 21.46875 26.695312 21.46875 33.109375 L 21.46875 205.390625 C 21.46875 211.808594 26.695312 217.03125 33.109375 217.03125 L 205.390625 217.03125 C 211.804688 217.03125 217.03125 211.808594 217.03125 205.390625 L 217.03125 33.109375 C 217.03125 26.695312 211.804688 21.46875 205.390625 21.46875 Z M 33.109375 21.46875 " fill-opacity="1" fill-rule="nonzero"/></g><g clip-path="url(#id2)"><path fill="#3fe65a" d="M 351.222656 153.332031 L 178.945312 153.332031 C 164.816406 153.332031 153.332031 164.816406 153.332031 178.945312 L 153.332031 351.222656 C 153.332031 365.351562 164.816406 376.832031 178.945312 376.832031 L 351.222656 376.832031 C 365.351562 376.832031 376.832031 365.351562 376.832031 351.222656 L 376.832031 178.945312 C 376.832031 164.816406 365.351562 153.332031 351.222656 153.332031 Z M 351.222656 153.332031 " fill-opacity="1" fill-rule="nonzero"/><path fill="#000000" d="M 351.222656 376.832031 L 178.945312 376.832031 C 164.816406 376.832031 153.332031 365.351562 153.332031 351.222656 L 153.332031 178.945312 C 153.332031 164.816406 164.816406 153.332031 178.945312 153.332031 L 351.222656 153.332031 C 365.351562 153.332031 376.832031 164.816406 376.832031 178.945312 L 376.832031 351.222656 C 376.832031 365.351562 365.351562 376.832031 351.222656 376.832031 Z M 178.945312 167.300781 C 172.527344 167.300781 167.300781 172.527344 167.300781 178.945312 L 167.300781 351.222656 C 167.300781 357.640625 172.527344 362.863281 178.945312 362.863281 L 351.222656 362.863281 C 357.640625 362.863281 362.863281 357.640625 362.863281 351.222656 L 362.863281 178.945312 C 362.863281 172.527344 357.640625 167.300781 351.222656 167.300781 Z M 178.945312 167.300781 " fill-opacity="1" fill-rule="nonzero"/></g><g clip-path="url(#id3)"><g clip-path="url(#id4)"><g clip-path="url(#id5)"><path fill="#000000" d="M 38.105469 49.175781 L 104.523438 132.179688 L 86.84375 136.808594 C 81.464844 138.226562 82.183594 146.058594 87.71875 146.488281 L 143.421875 150.777344 C 146.429688 151.007812 148.941406 148.496094 148.707031 145.488281 L 144.421875 89.789062 C 144.003906 84.238281 136.164062 83.535156 134.757812 88.898438 L 130.097656 106.574219 L 47.117188 40.164062 C 41.179688 35.382812 33.324219 43.234375 38.105469 49.175781 Z M 38.105469 49.175781 " fill-opacity="1" fill-rule="nonzero"/></g></g></g><g fill="#000000" fill-opacity="1"><g transform="translate(194.003648, 293.617477)"><g><path d="M 26.71875 0.6875 C 22.09375 0.6875 18.046875 -0.332031 14.578125 -2.375 C 11.117188 -4.414062 8.4375 -7.285156 6.53125 -10.984375 C 4.625 -14.679688 3.671875 -19.019531 3.671875 -24 C 3.671875 -29.03125 4.625 -33.378906 6.53125 -37.046875 C 8.4375 -40.722656 11.109375 -43.570312 14.546875 -45.59375 C 17.992188 -47.613281 22.050781 -48.625 26.71875 -48.625 C 31.394531 -48.625 35.453125 -47.613281 38.890625 -45.59375 C 42.335938 -43.570312 45.015625 -40.722656 46.921875 -37.046875 C 48.828125 -33.378906 49.78125 -29.054688 49.78125 -24.078125 C 49.78125 -19.046875 48.828125 -14.679688 46.921875 -10.984375 C 45.015625 -7.285156 42.335938 -4.414062 38.890625 -2.375 C 35.453125 -0.332031 31.394531 0.6875 26.71875 0.6875 Z M 26.71875 -6.796875 C 31.113281 -6.796875 34.535156 -8.3125 36.984375 -11.34375 C 39.429688 -14.382812 40.65625 -18.601562 40.65625 -24 C 40.65625 -29.4375 39.441406 -33.648438 37.015625 -36.640625 C 34.597656 -39.640625 31.164062 -41.140625 26.71875 -41.140625 C 22.320312 -41.140625 18.898438 -39.640625 16.453125 -36.640625 C 14.003906 -33.648438 12.78125 -29.4375 12.78125 -24 C 12.78125 -18.601562 14.003906 -14.382812 16.453125 -11.34375 C 18.898438 -8.3125 22.320312 -6.796875 26.71875 -6.796875 Z M 26.71875 -6.796875 "/></g></g></g><g fill="#000000" fill-opacity="1"><g transform="translate(247.377526, 293.617477)"><g><path d="M 27.546875 0.6875 C 22.554688 0.6875 18.28125 -0.320312 14.71875 -2.34375 C 11.164062 -4.363281 8.4375 -7.21875 6.53125 -10.90625 C 4.625 -14.601562 3.671875 -18.96875 3.671875 -24 C 3.671875 -29.03125 4.625 -33.378906 6.53125 -37.046875 C 8.4375 -40.722656 11.164062 -43.570312 14.71875 -45.59375 C 18.28125 -47.613281 22.554688 -48.625 27.546875 -48.625 C 30.035156 -48.625 32.476562 -48.304688 34.875 -47.671875 C 37.28125 -47.035156 39.390625 -46.128906 41.203125 -44.953125 C 42.378906 -44.179688 43.082031 -43.257812 43.3125 -42.1875 C 43.539062 -41.125 43.40625 -40.148438 42.90625 -39.265625 C 42.40625 -38.378906 41.65625 -37.789062 40.65625 -37.5 C 39.664062 -37.207031 38.554688 -37.46875 37.328125 -38.28125 C 35.921875 -39.1875 34.398438 -39.84375 32.765625 -40.25 C 31.140625 -40.664062 29.488281 -40.875 27.8125 -40.875 C 22.957031 -40.875 19.257812 -39.410156 16.71875 -36.484375 C 14.1875 -33.554688 12.921875 -29.394531 12.921875 -24 C 12.921875 -18.601562 14.1875 -14.429688 16.71875 -11.484375 C 19.257812 -8.546875 22.957031 -7.078125 27.8125 -7.078125 C 29.53125 -7.078125 31.226562 -7.289062 32.90625 -7.71875 C 34.582031 -8.144531 36.171875 -8.8125 37.671875 -9.71875 C 38.898438 -10.488281 39.988281 -10.738281 40.9375 -10.46875 C 41.882812 -10.195312 42.597656 -9.640625 43.078125 -8.796875 C 43.554688 -7.960938 43.703125 -7.046875 43.515625 -6.046875 C 43.335938 -5.054688 42.726562 -4.175781 41.6875 -3.40625 C 39.875 -2.082031 37.707031 -1.066406 35.1875 -0.359375 C 32.675781 0.335938 30.128906 0.6875 27.546875 0.6875 Z M 27.546875 0.6875 "/></g></g></g><g fill="#000000" fill-opacity="1"><g transform="translate(293.612226, 293.617477)"><g><path d="M 21.140625 0.546875 C 18.242188 0.546875 16.796875 -0.945312 16.796875 -3.9375 L 16.796875 -40.65625 L 3.53125 -40.65625 C 1.039062 -40.65625 -0.203125 -41.882812 -0.203125 -44.34375 C -0.203125 -46.738281 1.039062 -47.9375 3.53125 -47.9375 L 38.765625 -47.9375 C 41.253906 -47.9375 42.5 -46.738281 42.5 -44.34375 C 42.5 -41.882812 41.253906 -40.65625 38.765625 -40.65625 L 25.5 -40.65625 L 25.5 -3.9375 C 25.5 -0.945312 24.046875 0.546875 21.140625 0.546875 Z M 21.140625 0.546875 "/></g></g></g></svg>